<svg width="16" height="16" viewBox="0 0 16 16" fill="none" xmlns="http://www.w3.org/2000/svg">
<path d="M9.96875 2C8.86133 2 8 2.9043 8 4H9C9 3.38477 9.36523 3 9.96875 3C10.5625 3 11 3.4375 11 4.03125C11 4.625 10.584 5 9.96875 5H2V6H9.96875C11.0645 6 12 5.14844 12 4.03125C12 2.91406 11.0859 2 9.96875 2ZM2 7.5V8.5H11.75C12.4453 8.5 13 9.05469 13 9.75C13 10.4453 12.4453 11 11.75 11C11.3789 11 11.0898 10.8809 10.875 10.6562C10.6602 10.4316 10.5 10.0781 10.5 9.5H9.5C9.5 10.2715 9.73633 10.9043 10.1562 11.3438C10.5762 11.7832 11.1543 12 11.75 12C12.9863 12 14 10.9863 14 9.75C14 8.51367 12.9863 7.5 11.75 7.5H2ZM2 10V11H5.96875C6.57422 11 7 11.4062 7 12C7 12.6035 6.60352 13 6 13C5.39648 13 5 12.6035 5 12H4C4 13.1074 4.89258 14 6 14C7.10742 14 8 13.1074 8 12C8 10.8828 7.07617 10 5.96875 10H2Z" fill="#4A88D0"/>
</svg>
